<svg width="200" height="200" viewBox="0 0 200 200" fill="none" xmlns="http://www.w3.org/2000/svg">
  <rect width="200" height="200" rx="43.75" fill="url(#paint0_diamond_821_12474)" />
  <path
    d="M132.679 61.7188H138.281C142.089 61.7188 145.74 63.2312 148.432 65.9234C151.124 68.6155 152.637 72.2669 152.637 76.0742V123.926C152.637 127.733 151.124 131.384 148.432 134.077C145.74 136.769 142.089 138.281 138.281 138.281H132.679M132.679 61.7188C133.209 63.2181 133.496 64.8259 133.496 66.5039V133.496C133.496 135.174 133.209 136.782 132.679 138.281M132.679 61.7188C131.69 58.9192 129.856 56.4955 127.431 54.7815C125.007 53.0675 122.11 52.1475 119.141 52.1484H113.539M132.679 138.281C131.69 141.081 129.856 143.505 127.431 145.219C125.007 146.933 122.11 147.852 119.141 147.852H113.539M113.539 52.1484C114.068 53.6478 114.355 55.2556 114.355 56.9336V143.066C114.357 144.696 114.081 146.315 113.539 147.852M113.539 52.1484C111.567 46.5721 106.253 42.5781 100 42.5781H61.7187C57.9114 42.5781 54.2601 44.0906 51.5679 46.7827C48.8757 49.4749 47.3633 53.1263 47.3633 56.9336V143.066C47.3633 146.874 48.8757 150.525 51.5679 153.217C54.2601 155.909 57.9114 157.422 61.7187 157.422H100C102.969 157.423 105.866 156.503 108.291 154.789C110.715 153.075 112.549 150.651 113.539 147.852"
    stroke="white" stroke-width="8" stroke-linecap="round" stroke-linejoin="round" />
  <path
    d="M113.539 147.852C114.081 146.315 114.357 144.696 114.355 143.066V56.9336C114.355 55.2556 114.068 53.6478 113.539 52.1484M113.539 147.852C112.549 150.651 110.715 153.075 108.291 154.789C105.866 156.503 102.969 157.423 100 157.422H61.7187C57.9114 157.422 54.2601 155.909 51.5679 153.217C48.8757 150.525 47.3633 146.874 47.3633 143.066V56.9336C47.3633 53.1263 48.8757 49.4749 51.5679 46.7827C54.2601 44.0906 57.9114 42.5781 61.7187 42.5781H100C106.253 42.5781 111.567 46.5721 113.539 52.1484"
    stroke="white" stroke-width="10" stroke-linecap="round" stroke-linejoin="round" />
  <defs>
    <radialGradient id="paint0_diamond_821_12474" cx="0" cy="0" r="1" gradientUnits="userSpaceOnUse"
      gradientTransform="translate(102 -8.73289e-06) rotate(89.8568) scale(200.001 525.751)">
      <stop stop-color="#5423E7" />
      <stop offset="1" stop-color="#9283FF" />
    </radialGradient>
  </defs>
</svg>