<svg width="512" height="512" viewBox="0 0 512 512" fill="none" xmlns="http://www.w3.org/2000/svg" xmlns:xlink="http://www.w3.org/1999/xlink" class=""><rect id="r2p" width="512" height="512" x="0" y="0" rx="128" fill="url(#r2q)" stroke="#FFFFFF" stroke-width="0" stroke-opacity="100%" paint-order="stroke"></rect><clipPath id="clip"><use xlink:href="#r2p"></use></clipPath><defs><radialGradient id="r2q" cx="50%" cy="50%" r="100%" fx="50%" fy="0%" gradientUnits="objectBoundingBox"><stop stop-color="#4d4d4d"></stop><stop offset="1" stop-color="#000000"></stop></radialGradient><radialGradient id="r2r" cx="0" cy="0" r="1" gradientUnits="userSpaceOnUse" gradientTransform="translate(256) rotate(90) scale(512)"><stop stop-color="white"></stop><stop offset="1" stop-color="white" stop-opacity="0"></stop></radialGradient></defs><svg xmlns="http://www.w3.org/2000/svg" fill="none" viewBox="0 0 200 200" width="352" height="352" class="coolshapes wheel-7 " x="80" y="80" alignment-baseline="middle" style="color: rgb(230, 230, 230);"><mask id="cs_mask_1_wheel-7" width="200" height="192" x="0" y="4" maskUnits="userSpaceOnUse" style="mask-type: alpha;"><path fill="#fff" d="M85.087 196v-80.513L9.223 140.369 0 111.717l75.86-24.881L28.98 21.7 53.114 4 100 69.14 146.886 4l24.135 17.7-46.882 65.136L200 111.717l-9.223 28.652-75.864-24.882V196H85.087z"></path></mask><g mask="url(#cs_mask_1_wheel-7)"><path fill="#fff" d="M200 0H0v200h200V0z"></path><path fill="#06F" d="M200 0H0v200h200V0z"></path><g filter="url(#filter0_f_844_2790)"><path fill="#FFE500" d="M150 56H-15v129h165V56z"></path><ellipse cx="107.987" cy="146.246" fill="#FF58E4" rx="79.158" ry="47.123" transform="rotate(-33.875 107.987 146.246)"></ellipse></g></g><defs><filter id="filter0_f_844_2790" width="353.782" height="309.216" x="-95" y="-24" color-interpolation-filters="sRGB" filterUnits="userSpaceOnUse"><feFlood flood-opacity="0" result="BackgroundImageFix"></feFlood><feBlend in="SourceGraphic" in2="BackgroundImageFix" result="shape"></feBlend><feGaussianBlur result="effect1_foregroundBlur_844_2790" stdDeviation="40"></feGaussianBlur></filter></defs><g mask="url(#cs_mask_1_wheel-7)" style="mix-blend-mode: overlay;"><path fill="gray" stroke="transparent" d="M200 0H0v200h200V0z" filter="url(#cs_noise_1_wheel-7)"></path></g><defs><filter id="cs_noise_1_wheel-7" width="100%" height="100%" x="0%" y="0%" filterUnits="objectBoundingBox"><feTurbulence baseFrequency="0.6" numOctaves="5" result="out1" seed="4"></feTurbulence><feComposite in="out1" in2="SourceGraphic" operator="in" result="out2"></feComposite><feBlend in="SourceGraphic" in2="out2" mode="overlay" result="out3"></feBlend></filter></defs></svg></svg>